<svg id="SvgjsSvg1116" xmlns="http://www.w3.org/2000/svg" version="1.1" xmlns:xlink="http://www.w3.org/1999/xlink" xmlns:svgjs="http://svgjs.com/svgjs" width="18" height="15"><defs id="SvgjsDefs1117"></defs><path id="SvgjsPath1118" d="M758.581 447.467C756.59 445.462 753.404 445.562 751.5120000000001 447.467L744.0450000000001 454.98499999999996C742.6510000000001 456.38899999999995 742.6510000000001 458.59399999999994 744.0450000000001 459.99799999999993C744.7420000000001 460.69899999999996 745.638 460.99999999999994 746.5340000000001 460.99999999999994C747.4300000000001 460.99999999999994 748.3260000000001 460.59899999999993 748.9240000000001 459.89699999999993L755.6940000000001 453.08099999999996C756.4900000000001 452.27899999999994 756.4900000000001 451.07599999999996 755.6940000000001 450.27399999999994C754.897 449.4719999999999 753.7030000000001 449.4719999999999 752.9060000000001 450.27399999999994L748.2270000000001 454.98499999999996C748.0280000000001 455.186 748.0280000000001 455.48699999999997 748.2270000000001 455.68699999999995C748.426 455.888 748.724 455.888 748.9240000000001 455.68699999999995L753.6030000000001 450.97499999999997C754.0010000000001 450.575 754.599 450.575 754.9970000000001 450.97499999999997C755.3950000000001 451.37699999999995 755.3950000000001 451.97799999999995 754.9970000000001 452.37899999999996L748.2270000000001 459.19599999999997C747.3310000000001 460.198 745.738 460.198 744.7420000000001 459.19599999999997C743.7460000000001 458.29299999999995 743.7460000000001 456.69 744.7420000000001 455.68699999999995L752.2090000000001 448.169C753.802 446.565 756.291 446.565 757.884 448.169C759.477 449.77299999999997 759.477 452.279 757.884 453.883L752.508 459.296C752.3090000000001 459.496 752.3090000000001 459.79699999999997 752.508 459.998C752.707 460.198 753.0060000000001 460.198 753.205 459.998L758.581 454.584C760.4730000000001 452.579 760.4730000000001 449.372 758.581 447.467Z " fill="#000000" transform="matrix(1,0,0,1,-742,-446)"></path><path id="SvgjsPath1119" d="M758.581 447.467C756.59 445.462 753.404 445.562 751.5120000000001 447.467L744.0450000000001 454.98499999999996C742.6510000000001 456.38899999999995 742.6510000000001 458.59399999999994 744.0450000000001 459.99799999999993C744.7420000000001 460.69899999999996 745.638 460.99999999999994 746.5340000000001 460.99999999999994C747.4300000000001 460.99999999999994 748.3260000000001 460.59899999999993 748.9240000000001 459.89699999999993L755.6940000000001 453.08099999999996C756.4900000000001 452.27899999999994 756.4900000000001 451.07599999999996 755.6940000000001 450.27399999999994C754.897 449.4719999999999 753.7030000000001 449.4719999999999 752.9060000000001 450.27399999999994L748.2270000000001 454.98499999999996C748.0280000000001 455.186 748.0280000000001 455.48699999999997 748.2270000000001 455.68699999999995C748.426 455.888 748.724 455.888 748.9240000000001 455.68699999999995L753.6030000000001 450.97499999999997C754.0010000000001 450.575 754.599 450.575 754.9970000000001 450.97499999999997C755.3950000000001 451.37699999999995 755.3950000000001 451.97799999999995 754.9970000000001 452.37899999999996L748.2270000000001 459.19599999999997C747.3310000000001 460.198 745.738 460.198 744.7420000000001 459.19599999999997C743.7460000000001 458.29299999999995 743.7460000000001 456.69 744.7420000000001 455.68699999999995L752.2090000000001 448.169C753.802 446.565 756.291 446.565 757.884 448.169C759.477 449.77299999999997 759.477 452.279 757.884 453.883L752.508 459.296C752.3090000000001 459.496 752.3090000000001 459.79699999999997 752.508 459.998C752.707 460.198 753.0060000000001 460.198 753.205 459.998L758.581 454.584C760.4730000000001 452.579 760.4730000000001 449.372 758.581 447.467Z " fill="#f0c20b" fill-opacity="1" transform="matrix(1,0,0,1,-742,-446)"></path></svg>