<svg id="SvgjsSvg1000" xmlns="http://www.w3.org/2000/svg" version="1.1" xmlns:xlink="http://www.w3.org/1999/xlink" xmlns:svgjs="http://svgjs.com/svgjs" width="17" height="9"><defs id="SvgjsDefs1001"><clipPath id="SvgjsClipPath1009"><path id="SvgjsPath1008" d="M20 523L20 522L35 522L35 523Z " fill="#ffffff"></path></clipPath><clipPath id="SvgjsClipPath1012"><path id="SvgjsPath1011" d="M35.4 522.7L34.6 523.3000000000001L31.6 519.3000000000001L32.3999 518.7Z " fill="#ffffff"></path></clipPath><clipPath id="SvgjsClipPath1015"><path id="SvgjsPath1014" d="M34.6 521.7L35.4 522.3000000000001L32.399899999999995 526.3000000000001L31.599999999999994 525.7Z " fill="#ffffff"></path></clipPath><clipPath id="SvgjsClipPath1018"><path id="SvgjsPath1017" d="M20.4 523.3L19.599899999999998 522.6999999999999L22.599999999999998 518.6999999999999L23.3999 519.3Z " fill="#ffffff"></path></clipPath><clipPath id="SvgjsClipPath1021"><path id="SvgjsPath1020" d="M19.5999 522.3L20.400000000000002 521.6999999999999L23.399900000000002 525.6999999999999L22.6 526.3Z " fill="#ffffff"></path></clipPath></defs><path id="SvgjsPath1007" d="M20 523L20 522L35 522L35 523Z " fill-opacity="0" fill="#ffffff" stroke-dasharray="0" stroke-linejoin="miter" stroke-linecap="butt" stroke-opacity="1" stroke="#ffffff" stroke-miterlimit="50" stroke-width="4" clip-path="url(&quot;#SvgjsClipPath1009&quot;)" transform="matrix(1,0,0,1,-19,-518)"></path><path id="SvgjsPath1010" d="M35.4 522.7L34.6 523.3000000000001L31.6 519.3000000000001L32.3999 518.7Z " fill-opacity="0" fill="#ffffff" stroke-dasharray="0" stroke-linejoin="miter" stroke-linecap="butt" stroke-opacity="1" stroke="#ffffff" stroke-miterlimit="50" stroke-width="4" clip-path="url(&quot;#SvgjsClipPath1012&quot;)" transform="matrix(1,0,0,1,-19,-518)"></path><path id="SvgjsPath1013" d="M34.6 521.7L35.4 522.3000000000001L32.399899999999995 526.3000000000001L31.599999999999994 525.7Z " fill-opacity="0" fill="#ffffff" stroke-dasharray="0" stroke-linejoin="miter" stroke-linecap="butt" stroke-opacity="1" stroke="#ffffff" stroke-miterlimit="50" stroke-width="4" clip-path="url(&quot;#SvgjsClipPath1015&quot;)" transform="matrix(1,0,0,1,-19,-518)"></path><path id="SvgjsPath1016" d="M20.4 523.3L19.599899999999998 522.6999999999999L22.599999999999998 518.6999999999999L23.3999 519.3Z " fill-opacity="0" fill="#ffffff" stroke-dasharray="0" stroke-linejoin="miter" stroke-linecap="butt" stroke-opacity="1" stroke="#ffffff" stroke-miterlimit="50" stroke-width="4" clip-path="url(&quot;#SvgjsClipPath1018&quot;)" transform="matrix(1,0,0,1,-19,-518)"></path><path id="SvgjsPath1019" d="M19.5999 522.3L20.400000000000002 521.6999999999999L23.399900000000002 525.6999999999999L22.6 526.3Z " fill-opacity="0" fill="#ffffff" stroke-dasharray="0" stroke-linejoin="miter" stroke-linecap="butt" stroke-opacity="1" stroke="#ffffff" stroke-miterlimit="50" stroke-width="4" clip-path="url(&quot;#SvgjsClipPath1021&quot;)" transform="matrix(1,0,0,1,-19,-518)"></path></svg>