<svg id="SvgjsSvg1103" xmlns="http://www.w3.org/2000/svg" version="1.1" xmlns:xlink="http://www.w3.org/1999/xlink" xmlns:svgjs="http://svgjs.com/svgjs" width="11" height="12"><defs id="SvgjsDefs1104"></defs><path id="SvgjsPath1105" d="M1144.54 93.0001L1134.46 93.0001C1134.18 93.0001 1134 93.1838 1134 93.4597L1134 95.023C1134 95.161 1134.05 95.2529 1134.14 95.3449L1138.5400000000002 99.7586C1138.5800000000002 99.8045 1138.5800000000002 99.8506 1138.5800000000002 99.9425L1138.5800000000002 104.53999999999999C1138.5800000000002 104.81599999999999 1138.7700000000002 104.99999999999999 1139.0400000000002 104.99999999999999L1139.9600000000003 104.99999999999999C1140.2300000000002 104.99999999999999 1140.4200000000003 104.81599999999999 1140.4200000000003 104.53999999999999L1140.4200000000003 99.9425C1140.4200000000003 99.89659999999999 1140.4600000000003 99.80449999999999 1140.4600000000003 99.7586L1144.8600000000004 95.3449C1144.9500000000003 95.2529 1145.0000000000005 95.161 1145.0000000000005 95.023L1145.0000000000005 93.4597C1145.0000000000005 93.1838 1144.8200000000004 93.0001 1144.5400000000004 93.0001ZM1139.32 97.9655L1136.57 95.2068C1136.4299999999998 95.0689 1136.52 94.793 1136.75 94.793L1142.25 94.793C1142.43 94.793 1142.57 95.02300000000001 1142.43 95.2068L1139.68 97.9655C1139.5900000000001 98.0575 1139.41 98.0575 1139.3200000000002 97.9655Z " fill="#000000" transform="matrix(1,0,0,1,-1134,-93)"></path><path id="SvgjsPath1106" d="M1144.54 93.0001L1134.46 93.0001C1134.18 93.0001 1134 93.1838 1134 93.4597L1134 95.023C1134 95.161 1134.05 95.2529 1134.14 95.3449L1138.5400000000002 99.7586C1138.5800000000002 99.8045 1138.5800000000002 99.8506 1138.5800000000002 99.9425L1138.5800000000002 104.53999999999999C1138.5800000000002 104.81599999999999 1138.7700000000002 104.99999999999999 1139.0400000000002 104.99999999999999L1139.9600000000003 104.99999999999999C1140.2300000000002 104.99999999999999 1140.4200000000003 104.81599999999999 1140.4200000000003 104.53999999999999L1140.4200000000003 99.9425C1140.4200000000003 99.89659999999999 1140.4600000000003 99.80449999999999 1140.4600000000003 99.7586L1144.8600000000004 95.3449C1144.9500000000003 95.2529 1145.0000000000005 95.161 1145.0000000000005 95.023L1145.0000000000005 93.4597C1145.0000000000005 93.1838 1144.8200000000004 93.0001 1144.5400000000004 93.0001ZM1139.32 97.9655L1136.57 95.2068C1136.4299999999998 95.0689 1136.52 94.793 1136.75 94.793L1142.25 94.793C1142.43 94.793 1142.57 95.02300000000001 1142.43 95.2068L1139.68 97.9655C1139.5900000000001 98.0575 1139.41 98.0575 1139.3200000000002 97.9655Z " fill="#394869" fill-opacity="1" transform="matrix(1,0,0,1,-1134,-93)"></path></svg>