<svg id="SvgjsSvg1022" xmlns="http://www.w3.org/2000/svg" version="1.1" xmlns:xlink="http://www.w3.org/1999/xlink" xmlns:svgjs="http://svgjs.com/svgjs" width="7" height="9"><defs id="SvgjsDefs1023"><clipPath id="SvgjsClipPath1026"><path id="SvgjsPath1025" d="M85 112L86 112L86 115L85 115Z " fill="#ffffff"></path></clipPath><clipPath id="SvgjsClipPath1029"><path id="SvgjsPath1028" d="M88 109L89 109L89 115L88 115Z " fill="#ffffff"></path></clipPath><clipPath id="SvgjsClipPath1032"><path id="SvgjsPath1031" d="M91 106L91.9999 106L91.9999 115L91 115Z " fill="#ffffff"></path></clipPath></defs><path id="SvgjsPath1024" d="M85 112L86 112L86 115L85 115Z " fill-opacity="0" fill="#ffffff" stroke-dasharray="0" stroke-linejoin="miter" stroke-linecap="butt" stroke-opacity="1" stroke="#ffffff" stroke-miterlimit="50" stroke-width="2" clip-path="url(&quot;#SvgjsClipPath1026&quot;)" transform="matrix(1,0,0,1,-85,-106)"></path><path id="SvgjsPath1027" d="M88 109L89 109L89 115L88 115Z " fill-opacity="0" fill="#ffffff" stroke-dasharray="0" stroke-linejoin="miter" stroke-linecap="butt" stroke-opacity="1" stroke="#ffffff" stroke-miterlimit="50" stroke-width="2" clip-path="url(&quot;#SvgjsClipPath1029&quot;)" transform="matrix(1,0,0,1,-85,-106)"></path><path id="SvgjsPath1030" d="M91 106L91.9999 106L91.9999 115L91 115Z " fill-opacity="0" fill="#ffffff" stroke-dasharray="0" stroke-linejoin="miter" stroke-linecap="butt" stroke-opacity="1" stroke="#ffffff" stroke-miterlimit="50" stroke-width="2" clip-path="url(&quot;#SvgjsClipPath1032&quot;)" transform="matrix(1,0,0,1,-85,-106)"></path></svg>