<svg id="SvgjsSvg1120" xmlns="http://www.w3.org/2000/svg" version="1.1" xmlns:xlink="http://www.w3.org/1999/xlink" xmlns:svgjs="http://svgjs.com/svgjs" width="35" height="11"><defs id="SvgjsDefs1121"><clipPath id="SvgjsClipPath1124"><path id="SvgjsPath1123" d="M970 1724L970 1723L1005 1723L1005 1724Z " fill="#ffffff"></path></clipPath><clipPath id="SvgjsClipPath1127"><path id="SvgjsPath1126" d="M1004.31 1722.61L1003.6899999999999 1723.3899999999999L998.688 1719.3899999999999L999.312 1718.61Z " fill="#ffffff"></path></clipPath><clipPath id="SvgjsClipPath1130"><path id="SvgjsPath1129" d="M1003.69 1723.61L1004.3100000000001 1724.3899999999999L999.312 1728.3899999999999L998.688 1727.61Z " fill="#ffffff"></path></clipPath></defs><path id="SvgjsPath1122" d="M970 1724L970 1723L1005 1723L1005 1724Z " fill-opacity="0" fill="#ffffff" stroke-dasharray="0" stroke-linejoin="miter" stroke-linecap="butt" stroke-opacity="1" stroke="#b2b2b2" stroke-miterlimit="50" stroke-width="4" clip-path="url(&quot;#SvgjsClipPath1124&quot;)" transform="matrix(1,0,0,1,-970,-1718)"></path><path id="SvgjsPath1125" d="M1004.31 1722.61L1003.6899999999999 1723.3899999999999L998.688 1719.3899999999999L999.312 1718.61Z " fill-opacity="0" fill="#ffffff" stroke-dasharray="0" stroke-linejoin="miter" stroke-linecap="butt" stroke-opacity="1" stroke="#b2b2b2" stroke-miterlimit="50" stroke-width="4" clip-path="url(&quot;#SvgjsClipPath1127&quot;)" transform="matrix(1,0,0,1,-970,-1718)"></path><path id="SvgjsPath1128" d="M1003.69 1723.61L1004.3100000000001 1724.3899999999999L999.312 1728.3899999999999L998.688 1727.61Z " fill-opacity="0" fill="#ffffff" stroke-dasharray="0" stroke-linejoin="miter" stroke-linecap="butt" stroke-opacity="1" stroke="#b2b2b2" stroke-miterlimit="50" stroke-width="4" clip-path="url(&quot;#SvgjsClipPath1130&quot;)" transform="matrix(1,0,0,1,-970,-1718)"></path></svg>