<svg id="SvgjsSvg1084" xmlns="http://www.w3.org/2000/svg" version="1.1" xmlns:xlink="http://www.w3.org/1999/xlink" xmlns:svgjs="http://svgjs.com/svgjs" width="15" height="14"><defs id="SvgjsDefs1085"><clipPath id="SvgjsClipPath1088"><path id="SvgjsPath1087" d="M20 368L20 354L35 354L35 368Z " fill="#ffffff"></path></clipPath><clipPath id="SvgjsClipPath1091"><path id="SvgjsPath1090" d="M20.6464 355.354L21.3535 354.64599999999996L27.3535 360.64599999999996L26.6464 361.354Z " fill="#ffffff"></path></clipPath><clipPath id="SvgjsClipPath1094"><path id="SvgjsPath1093" d="M33.6464 354.646L34.3535 355.35400000000004L27.353499999999997 362.35400000000004L26.646399999999996 361.64700000000005Z " fill="#ffffff"></path></clipPath></defs><path id="SvgjsPath1086" d="M20 368L20 354L35 354L35 368Z " fill-opacity="0" fill="#ffffff" stroke-dasharray="0" stroke-linejoin="miter" stroke-linecap="butt" stroke-opacity="1" stroke="#ffffff" stroke-miterlimit="50" stroke-width="2" clip-path="url(&quot;#SvgjsClipPath1088&quot;)" transform="matrix(1,0,0,1,-20,-354)"></path><path id="SvgjsPath1089" d="M20.6464 355.354L21.3535 354.64599999999996L27.3535 360.64599999999996L26.6464 361.354Z " fill-opacity="0" fill="#ffffff" stroke-dasharray="0" stroke-linejoin="miter" stroke-linecap="butt" stroke-opacity="1" stroke="#ffffff" stroke-miterlimit="50" stroke-width="2" clip-path="url(&quot;#SvgjsClipPath1091&quot;)" transform="matrix(1,0,0,1,-20,-354)"></path><path id="SvgjsPath1092" d="M33.6464 354.646L34.3535 355.35400000000004L27.353499999999997 362.35400000000004L26.646399999999996 361.64700000000005Z " fill-opacity="0" fill="#ffffff" stroke-dasharray="0" stroke-linejoin="miter" stroke-linecap="butt" stroke-opacity="1" stroke="#ffffff" stroke-miterlimit="50" stroke-width="2" clip-path="url(&quot;#SvgjsClipPath1094&quot;)" transform="matrix(1,0,0,1,-20,-354)"></path></svg>