<svg id="SvgjsSvg1041" xmlns="http://www.w3.org/2000/svg" version="1.1" xmlns:xlink="http://www.w3.org/1999/xlink" xmlns:svgjs="http://svgjs.com/svgjs" width="15" height="17"><defs id="SvgjsDefs1042"><clipPath id="SvgjsClipPath1045"><path id="SvgjsPath1044" d="M27.5 191C29.9853 191 32 193.686 32 197C32 200.314 29.9853 203 27.5 203C25.0147 203 23 200.314 23 197C23 193.686 25.0147 191 27.5 191Z " fill="#ffffff"></path></clipPath><clipPath id="SvgjsClipPath1048"><path id="SvgjsPath1047" d="M32 203L32 202L35 202L35 203Z " fill="#ffffff"></path></clipPath><clipPath id="SvgjsClipPath1051"><path id="SvgjsPath1050" d="M20 203L20 202L22.9999 202L22.9999 203Z " fill="#ffffff"></path></clipPath><clipPath id="SvgjsClipPath1054"><path id="SvgjsPath1053" d="M20 203L21 203L21 208L20 208Z " fill="#ffffff"></path></clipPath><clipPath id="SvgjsClipPath1057"><path id="SvgjsPath1056" d="M33.9999 203L35 203L35 208L33.9999 208Z " fill="#ffffff"></path></clipPath><clipPath id="SvgjsClipPath1060"><path id="SvgjsPath1059" d="M21 208L21 207L35 207L35 208Z " fill="#ffffff"></path></clipPath></defs><path id="SvgjsPath1043" d="M27.5 191C29.9853 191 32 193.686 32 197C32 200.314 29.9853 203 27.5 203C25.0147 203 23 200.314 23 197C23 193.686 25.0147 191 27.5 191Z " fill-opacity="0" fill="#ffffff" stroke-dasharray="0" stroke-linejoin="miter" stroke-linecap="butt" stroke-opacity="1" stroke="#ffffff" stroke-miterlimit="50" stroke-width="2" clip-path="url(&quot;#SvgjsClipPath1045&quot;)" transform="matrix(1,0,0,1,-20,-191)"></path><path id="SvgjsPath1046" d="M32 203L32 202L35 202L35 203Z " fill-opacity="0" fill="#ffffff" stroke-dasharray="0" stroke-linejoin="miter" stroke-linecap="butt" stroke-opacity="1" stroke="#ffffff" stroke-miterlimit="50" stroke-width="2" clip-path="url(&quot;#SvgjsClipPath1048&quot;)" transform="matrix(1,0,0,1,-20,-191)"></path><path id="SvgjsPath1049" d="M20 203L20 202L22.9999 202L22.9999 203Z " fill-opacity="0" fill="#ffffff" stroke-dasharray="0" stroke-linejoin="miter" stroke-linecap="butt" stroke-opacity="1" stroke="#ffffff" stroke-miterlimit="50" stroke-width="2" clip-path="url(&quot;#SvgjsClipPath1051&quot;)" transform="matrix(1,0,0,1,-20,-191)"></path><path id="SvgjsPath1052" d="M20 203L21 203L21 208L20 208Z " fill-opacity="0" fill="#ffffff" stroke-dasharray="0" stroke-linejoin="miter" stroke-linecap="butt" stroke-opacity="1" stroke="#ffffff" stroke-miterlimit="50" stroke-width="2" clip-path="url(&quot;#SvgjsClipPath1054&quot;)" transform="matrix(1,0,0,1,-20,-191)"></path><path id="SvgjsPath1055" d="M33.9999 203L35 203L35 208L33.9999 208Z " fill-opacity="0" fill="#ffffff" stroke-dasharray="0" stroke-linejoin="miter" stroke-linecap="butt" stroke-opacity="1" stroke="#ffffff" stroke-miterlimit="50" stroke-width="2" clip-path="url(&quot;#SvgjsClipPath1057&quot;)" transform="matrix(1,0,0,1,-20,-191)"></path><path id="SvgjsPath1058" d="M21 208L21 207L35 207L35 208Z " fill-opacity="0" fill="#ffffff" stroke-dasharray="0" stroke-linejoin="miter" stroke-linecap="butt" stroke-opacity="1" stroke="#ffffff" stroke-miterlimit="50" stroke-width="2" clip-path="url(&quot;#SvgjsClipPath1060&quot;)" transform="matrix(1,0,0,1,-20,-191)"></path></svg>