<svg id="SvgjsSvg1061" xmlns="http://www.w3.org/2000/svg" version="1.1" xmlns:xlink="http://www.w3.org/1999/xlink" xmlns:svgjs="http://svgjs.com/svgjs" width="15" height="17"><defs id="SvgjsDefs1062"><clipPath id="SvgjsClipPath1065"><path id="SvgjsPath1064" d="M20 261L20 244L21 244L21 261Z " fill="#ffffff"></path></clipPath><clipPath id="SvgjsClipPath1068"><path id="SvgjsPath1067" d="M34 261L34 244L35 244L35 261Z " fill="#ffffff"></path></clipPath><clipPath id="SvgjsClipPath1071"><path id="SvgjsPath1070" d="M22.9999 247L22.9999 246L30 246L30 247Z " fill="#ffffff"></path></clipPath><clipPath id="SvgjsClipPath1074"><path id="SvgjsPath1073" d="M26 250L26 249L33 249L33 250Z " fill="#ffffff"></path></clipPath><clipPath id="SvgjsClipPath1077"><path id="SvgjsPath1076" d="M22.9999 253L22.9999 252L30 252L30 253Z " fill="#ffffff"></path></clipPath><clipPath id="SvgjsClipPath1080"><path id="SvgjsPath1079" d="M24.9999 256L24.9999 255L32 255L32 256Z " fill="#ffffff"></path></clipPath><clipPath id="SvgjsClipPath1083"><path id="SvgjsPath1082" d="M21 259L21 258L28 258L28 259Z " fill="#ffffff"></path></clipPath></defs><path id="SvgjsPath1063" d="M20 261L20 244L21 244L21 261Z " fill-opacity="0" fill="#ffffff" stroke-dasharray="0" stroke-linejoin="miter" stroke-linecap="butt" stroke-opacity="1" stroke="#ffffff" stroke-miterlimit="50" stroke-width="2" clip-path="url(&quot;#SvgjsClipPath1065&quot;)" transform="matrix(1,0,0,1,-20,-244)"></path><path id="SvgjsPath1066" d="M34 261L34 244L35 244L35 261Z " fill-opacity="0" fill="#ffffff" stroke-dasharray="0" stroke-linejoin="miter" stroke-linecap="butt" stroke-opacity="1" stroke="#ffffff" stroke-miterlimit="50" stroke-width="2" clip-path="url(&quot;#SvgjsClipPath1068&quot;)" transform="matrix(1,0,0,1,-20,-244)"></path><path id="SvgjsPath1069" d="M22.9999 247L22.9999 246L30 246L30 247Z " fill-opacity="0" fill="#ffffff" stroke-dasharray="0" stroke-linejoin="miter" stroke-linecap="butt" stroke-opacity="1" stroke="#ffffff" stroke-miterlimit="50" stroke-width="2" clip-path="url(&quot;#SvgjsClipPath1071&quot;)" transform="matrix(1,0,0,1,-20,-244)"></path><path id="SvgjsPath1072" d="M26 250L26 249L33 249L33 250Z " fill-opacity="0" fill="#ffffff" stroke-dasharray="0" stroke-linejoin="miter" stroke-linecap="butt" stroke-opacity="1" stroke="#ffffff" stroke-miterlimit="50" stroke-width="2" clip-path="url(&quot;#SvgjsClipPath1074&quot;)" transform="matrix(1,0,0,1,-20,-244)"></path><path id="SvgjsPath1075" d="M22.9999 253L22.9999 252L30 252L30 253Z " fill-opacity="0" fill="#ffffff" stroke-dasharray="0" stroke-linejoin="miter" stroke-linecap="butt" stroke-opacity="1" stroke="#ffffff" stroke-miterlimit="50" stroke-width="2" clip-path="url(&quot;#SvgjsClipPath1077&quot;)" transform="matrix(1,0,0,1,-20,-244)"></path><path id="SvgjsPath1078" d="M24.9999 256L24.9999 255L32 255L32 256Z " fill-opacity="0" fill="#ffffff" stroke-dasharray="0" stroke-linejoin="miter" stroke-linecap="butt" stroke-opacity="1" stroke="#ffffff" stroke-miterlimit="50" stroke-width="2" clip-path="url(&quot;#SvgjsClipPath1080&quot;)" transform="matrix(1,0,0,1,-20,-244)"></path><path id="SvgjsPath1081" d="M21 259L21 258L28 258L28 259Z " fill-opacity="0" fill="#ffffff" stroke-dasharray="0" stroke-linejoin="miter" stroke-linecap="butt" stroke-opacity="1" stroke="#ffffff" stroke-miterlimit="50" stroke-width="2" clip-path="url(&quot;#SvgjsClipPath1083&quot;)" transform="matrix(1,0,0,1,-20,-244)"></path></svg>