<svg id="SvgjsSvg1107" xmlns="http://www.w3.org/2000/svg" version="1.1" xmlns:xlink="http://www.w3.org/1999/xlink" xmlns:svgjs="http://svgjs.com/svgjs" width="12" height="15"><defs id="SvgjsDefs1108"><clipPath id="SvgjsClipPath1111"><path id="SvgjsPath1110" d="M928 221L928 209L937 209L937 221Z " fill="#ffffff"></path></clipPath><clipPath id="SvgjsClipPath1115"><path id="SvgjsPath1114" d="M925 224L925 212L934 212L934 224Z " fill="#ffffff"></path></clipPath></defs><path id="SvgjsPath1109" d="M928 221L928 209L937 209L937 221Z " fill-opacity="0" fill="#ffffff" stroke-dasharray="0" stroke-linejoin="miter" stroke-linecap="butt" stroke-opacity="1" stroke="#394869" stroke-miterlimit="50" stroke-width="2" clip-path="url(&quot;#SvgjsClipPath1111&quot;)" transform="matrix(1,0,0,1,-925,-209)"></path><path id="SvgjsPath1112" d="M925 224L925 212L934 212L934 224Z " fill="#394869" transform="matrix(1,0,0,1,-925,-209)"></path><path id="SvgjsPath1113" d="M925 224L925 212L934 212L934 224Z " fill-opacity="0" fill="#ffffff" stroke-dasharray="0" stroke-linejoin="miter" stroke-linecap="butt" stroke-opacity="1" stroke="#394869" stroke-miterlimit="50" stroke-width="2" clip-path="url(&quot;#SvgjsClipPath1115&quot;)" transform="matrix(1,0,0,1,-925,-209)"></path></svg>